<svg xmlns="http://www.w3.org/2000/svg" viewBox="0 0 433.64 337.1"><defs><style>.cls-1{fill:#3881c3;}.cls-2{fill:#fff;}</style></defs><g id="Layer_2" data-name="Layer 2"><g id="Layer_1-2" data-name="Layer 1"><path class="cls-1" d="M67.38,11.12C81.84-14.68,211,2,254.53,86.66c36,70.08,111.89,92.73,129,92.3,30.49-.76,52.59-25.7,49.94-21-7.2,12.89-42.09,88.51-74.39,147.38C269.48,264.76,142.63,189.83,15.79,119,14,103.73,44,52.8,67.38,11.12Z"/><path class="cls-2" d="M51.66,42.83C66.12,17,195.29,33.72,238.81,118.37c36,70.08,111.89,92.73,129,92.3,30.49-.76,52.58-25.7,49.93-20.95-7.2,12.89-42.08,88.51-74.39,147.38C253.77,296.47,126.91,221.54.07,150.71-1.69,135.44,28.31,84.51,51.66,42.83Z"/></g></g></svg>